/* XPM */
static char * blank_xpm[] = {
"16 16 28 1",
"       c None",
".      c #A70505",
"+      c #AA0606",
"@      c #AE0808",
"#      c #AF0808",
"$      c #B50B0B",
"%      c #B60B0B",
"&      c #B90C0C",
"*      c #BB0E0E",
"=      c #BC0E0E",
"-      c #BE1010",
";      c #BF1010",
">      c #C01111",
",      c #C11212",
"'      c #C31414",
")      c #C41515",
"!      c #C51616",
"~      c #C61818",
"{      c #C91C1C",
"]      c #CA1D1D",
"^      c #CB1E1E",
"/      c #CF2626",
"(      c #D12828",
"_      c #D73535",
":      c #D83838",
"<      c #DC4040",
"[      c #DF4A4A",
"}      c #E86B6B",
"                ",
"                ",
"                ",
"                ",
"                ",
"      '!)>      ",
"     )(<:~=     ",
"     )_}[]*     ",
"     ,^/{,$     ",
"     &;-*%+     ",
"      ##@.      ",
"                ",
"                ",
"                ",
"                ",
"                "};
