/* XPM */
static char * hollow_xpm[] = {
"16 16 9 1",
" 	c None",
".	c #761010",
"+	c #771111",
"@	c #7E1919",
"#	c #781212",
"$	c #740E0E",
"%	c #710C0C",
"&	c #6C0C0C",
"*	c #6E0C0C",
"                ",
"                ",
"                ",
"                ",
"                ",
"      .+..      ",
"     .@  #$     ",
"     .    $     ",
"     .    %     ",
"     $$  %&     ",
"      ***&      ",
"                ",
"                ",
"                ",
"                ",
"                "};
