/* XPM */
static char * blank_xpm[] = {
"26 24 30 1",
"       c None",
".      c #808080",
"+      c #F4F4E9",
"@      c #000000",
"#      c #515151",
"$      c #555551",
"%      c #6F6F6A",
"&      c #A3A39F",
"*      c #939390",
"=      c #929390",
"-      c #848381",
";      c #848480",
">      c #838381",
",      c #838480",
"'      c #838380",
")      c #747471",
"!      c #737471",
"~      c #747371",
"{      c #747470",
"]      c #F3F3E8",
"^      c #646461",
"/      c #646561",
"(      c #656561",
"_      c #656460",
":      c #646460",
"<      c #656461",
"[      c #6B6B66",
"}      c #E3E3D9",
"|      c #252525",
"1      c #C8C8BF",
"                          ",
"                          ",
" ........................ ",
" .++++++++++++++++++++++. ",
" .++@+@++@@@++@@@++@@@++. ",
" .++@+@++@+@++@+@++@+@++. ",
" .++@@@++@@@++@@+++@@+++. ",
" .+++@+++@+@++@+@++@+@++. ",
" .+++@+++@+@++@+@++@+@++. ",
" .+@@@@@@@@@@@@@@@@@@@@+. ",
" #++++++++++++++++++++++# ",
" #++++++++++++++++++++++# ",
" #+$$$$$$$$$$+%%%%%%%%%+# ",
" #++++++++++++%&&&&&&&%+# ",
" #+$$$$$$$$$$+%******=%+# ",
" #++++++++++++%-;>,'>'%+# ",
" #+$$$$$$$$$$+$)!~{~){%+# ",
" #]]]]]]]]]]]]$^/(_:<:[]# ",
" #}%%%%%%%%%%}$$$$$$$$%}# ",
" #|11111111111111111111|# ",
"  ||||||||||||||||||||||  ",
"                          ",
"                          ",
"                          "};
