/* XPM */
static char * blank_xpm[] = {
"26 24 21 1",
"       c None",
".      c #984848",
"+      c #F1D6D6",
"@      c #000000",
"#      c #5C3434",
"$      c #360000",
"%      c #5D0000",
"&      c #A12A2A",
"*      c #911313",
"=      c #901212",
"-      c #820202",
";      c #650000",
">      c #640000",
",      c #F0D3D3",
"'      c #490000",
")      c #4B0000",
"!      c #4C0000",
"~      c #580000",
"{      c #E0A9A9",
"]      c #1B0909",
"^      c #C56B6B",
"                          ",
"                          ",
" ........................ ",
" .++++++++++++++++++++++. ",
" .++@+@++@@@++@@@++@@@++. ",
" .++@+@++@+@++@+@++@+@++. ",
" #++@@@++@@@++@@+++@@+++. ",
" #+++@+++@+@++@+@++@+@++. ",
" #+++@+++@+@++@+@++@+@++# ",
" #+@@@@@@@@@@@@@@@@@@@@+# ",
" #++++++++++++++++++++++# ",
" #++++++++++++++++++++++# ",
" #+$$$$$$$$$$+%%%%%%%%%+# ",
" #++++++++++++%&&&&&&&%+# ",
" #+$$$$$$$$$$+%******=%+# ",
" #++++++++++++%-------%+# ",
" #+$$$$$$$$$$+$;;>;>;;%+# ",
" #,,,,,,,,,,,,$')!)')'~,# ",
" #{%%%%%%%%%%{$$$$$$$$%{# ",
" #]^^^^^^^^^^^^^^^^^^^^]# ",
"  ]]]]]]]]]]]]]]]]]]]]]]  ",
"                          ",
"                          ",
"                          "};
